<svg xmlns="http://www.w3.org/2000/svg" viewBox="0 0 23 23"><path d="M1 1h7v7h-7zM9 1h4v2h-3v1h-1zM15 1h7v7h-7zM2 2v5h5v-5zM16 2v5h5v-5zM3 3h3v3h-3zM13 3h1v1h-1zM17 3h3v3h-3zM12 4h1v1h-1zM9 5h2v1h2v-1h1v4h1v1h-1v1h-1v-2h-1v1h-1v-1h-1v-1h1v-1h-1v-1h-1zM9 7h1v1h-1zM12 7v1h1v-1zM1 9h1v1h1v1h-2zM4 9h6v1h-4v1h2v1h-1v1h-3v-1h1v-1h-1zM17 9h1v2h4v3h-1v1h-1v2h-1v1h-1v-1h-2v-1h-1v1h-1v2h-2v2h-2v-1h1v-1h-2v-5h1v1h1v-2h1v1h2v1h4v-2h1v1h1v-1h1v-1h-1v1h-1v-1h-2zM19 9h3v1h-3zM15 10h1v2h-2v-1h1zM3 11h1v1h-1zM10 11h2v1h-1v1h-1zM1 12h1v2h-1zM8 12h1v1h-1zM12 12h1v1h-1zM3 13h1v1h-1zM7 13h1v1h-1zM15 13h1v1h-1zM1 15h7v7h-7zM12 15v1h-1v1h-1v1h1v-1h1v-1h1v-1zM2 16v5h5v-5zM3 17h3v3h-3zM15 17h1v1h-1zM20 17h2v1h-2zM19 18h1v1h-1zM15 19h1v2h-2v-1h1zM17 19h2v1h1v-1h2v2h-4v-1h-1zM9 21h1v1h-1zM12 21h1v1h-1zM16 21h1v1h-1z"/></svg>